# xmcd
# 
# Track frame offsets:
#     150
#     15229
#     30792
#     42658
#     56882
#     73008
#     92113
#     104087
#     115360
#     135813
#     151801
#     163965
# 
# Disc length: 2467
# 
# Revision: 3
# Processed by: cddbd v1.5.2PL0 Copyright (c) Steve Scherf et al.
# Submitted via: fre:ac v1.0.31
# 
DISCID=9a09a10c
DTITLE=The Mysteries of Life - Beginning to Move
DYEAR=2006
DGENRE=Alternative
TTITLE0=Stop Thinking
TTITLE1=Hard as I May Try
TTITLE2=Is This What I've Waiting For?
TTITLE3=One False Move
TTITLE4=Couldn't Do
TTITLE5=Early Summer
TTITLE6=On Second Thought
TTITLE7=Caroline
TTITLE8=I'm Getting Cold
TTITLE9=Twist and Turn
TTITLE10=Listen to My Voice
TTITLE11=Beginning to Move
EXTD=
EXTT0=
EXTT1=
EXTT2=
EXTT3=
EXTT4=
EXTT5=
EXTT6=
EXTT7=
EXTT8=
EXTT9=
EXTT10=
EXTT11=
PLAYORDER=
